<?xml version="1.0" standalone="no"?>
<!DOCTYPE svg PUBLIC "-//W3C//DTD SVG 20010904//EN"
 "http://www.w3.org/TR/2001/REC-SVG-20010904/DTD/svg10.dtd">
<svg version="1.0" xmlns="http://www.w3.org/2000/svg"
 width="500.000000pt" height="500.000000pt" viewBox="0 0 500.000000 500.000000"
 preserveAspectRatio="xMidYMid meet">

<g transform="translate(0.000000,500.000000) scale(0.100000,-0.100000)"
fill="#000000" stroke="none">
<path d="M3050 2891 c0 -6 4 -13 10 -16 6 -3 7 1 4 9 -7 18 -14 21 -14 7z"/>
<path d="M1822 1900 c0 -43 2 -58 8 -45 4 12 15 27 24 34 14 12 17 10 22 -18
4 -17 10 -34 15 -36 10 -7 -8 56 -19 67 -6 6 -16 3 -25 -6 -14 -15 -16 -12
-20 26 -2 31 -4 25 -5 -22z"/>
<path d="M2020 1936 c0 -8 -8 -17 -17 -19 -16 -4 -16 -5 -1 -6 11 -1 18 -12
21 -33 l4 -33 1 32 c1 21 8 33 20 36 15 4 15 5 -2 6 -12 1 -16 6 -12 16 3 8 1
15 -4 15 -6 0 -10 -6 -10 -14z"/>
<path d="M2310 1926 c0 -18 -7 -26 -22 -29 -23 -4 -23 -4 -1 -6 18 -1 23 -8
26 -38 2 -23 4 -12 5 30 1 37 0 67 -3 67 -3 0 -5 -11 -5 -24z"/>
<path d="M3291 1928 c-1 -19 -7 -28 -23 -31 -23 -4 -23 -4 -1 -6 18 -1 22 -8
25 -38 l3 -38 5 40 c3 22 2 54 -1 70 -7 30 -7 30 -8 3z"/>
<path d="M1478 1921 c-14 -5 -14 -8 -2 -19 8 -7 14 -8 14 -3 0 5 10 11 23 13
21 3 21 4 2 9 -11 3 -28 3 -37 0z"/>
<path d="M1551 1873 l2 -48 6 40 c4 30 10 40 23 39 10 -1 15 2 12 7 -3 5 -14
9 -25 9 -16 0 -19 -7 -18 -47z"/>
<path d="M1630 1901 c-23 -44 3 -82 43 -63 21 10 20 10 -7 9 -16 -1 -31 4 -33
11 -3 8 6 12 26 12 32 0 61 32 41 45 -6 4 -10 3 -9 -2 4 -23 -3 -33 -26 -33
-29 0 -33 15 -7 29 16 10 16 10 0 11 -10 0 -22 -9 -28 -19z"/>
<path d="M2081 1873 l2 -48 6 40 c4 30 10 40 23 39 10 -1 15 2 12 7 -3 5 -14
9 -25 9 -16 0 -19 -7 -18 -47z"/>
<path d="M2154 1881 c1 -30 6 -46 16 -48 10 -3 11 -2 3 4 -6 4 -13 26 -16 48
-4 40 -4 40 -3 -4z"/>
<path d="M2740 1901 c-23 -44 3 -82 43 -63 21 10 20 10 -7 9 -16 -1 -31 4 -33
11 -3 7 6 12 24 13 23 1 24 2 6 6 -27 5 -29 18 -5 32 16 10 16 10 0 11 -10 0
-22 -9 -28 -19z"/>
<path d="M2803 1899 c-2 -23 3 -25 10 -4 4 8 3 16 -1 19 -4 3 -9 -4 -9 -15z"/>
<path d="M2925 1910 c-3 -6 1 -7 9 -4 24 9 20 -19 -5 -34 -29 -18 -19 -34 21
-37 19 -1 29 0 23 2 -8 3 -13 22 -13 44 0 27 -4 39 -14 39 -8 0 -18 -4 -21
-10z m25 -50 c0 -5 -7 -10 -16 -10 -8 0 -12 5 -9 10 3 6 10 10 16 10 5 0 9 -4
9 -10z"/>
<path d="M3022 1903 c-12 -23 -24 -73 -18 -73 3 0 10 18 16 41 12 44 30 48 41
8 4 -14 7 -17 8 -7 3 44 -30 65 -47 31z"/>
<path d="M3096 1905 c-17 -46 1 -88 28 -65 11 8 15 8 20 -2 3 -7 4 7 3 32 -2
37 -6 46 -23 48 -13 2 -24 -4 -28 -13z m39 -15 c7 -21 -9 -50 -26 -50 -10 0
-12 53 -2 63 12 12 22 7 28 -13z"/>
<path d="M3372 1895 c-11 -24 -10 -25 21 -25 18 0 38 5 45 12 14 14 16 38 3
38 -5 0 -8 -8 -7 -17 1 -13 -7 -19 -26 -21 -31 -4 -37 12 -10 27 14 9 15 10 1
11 -9 0 -21 -11 -27 -25z"/>
<path d="M3476 1911 c-4 -5 3 -7 14 -4 23 6 26 13 6 13 -8 0 -17 -4 -20 -9z"/>
<path d="M1747 1903 c-16 -15 -5 -33 19 -33 32 0 23 -17 -20 -36 -17 -7 -25
-13 -18 -14 23 0 73 31 69 43 -2 7 -13 13 -25 15 -29 4 -28 19 1 25 20 4 20 4
1 6 -11 0 -24 -2 -27 -6z"/>
<path d="M2211 1885 c0 -17 -6 -36 -13 -43 -9 -9 -9 -12 0 -12 14 0 26 41 19
67 -3 11 -5 6 -6 -12z"/>
<path d="M2243 1870 c0 -25 2 -35 4 -22 2 12 2 32 0 45 -2 12 -4 2 -4 -23z"/>
<path d="M2492 1868 c-1 -26 -7 -49 -14 -51 -10 -4 -10 -6 0 -6 18 -1 24 20
19 65 -4 38 -4 37 -5 -8z"/>
<path d="M2580 1889 c0 -11 -5 -30 -11 -42 -10 -21 -10 -21 5 -3 15 18 22 66
11 66 -3 0 -5 -9 -5 -21z"/>
<path d="M2613 1870 c0 -25 2 -35 4 -22 2 12 2 32 0 45 -2 12 -4 2 -4 -23z"/>
<path d="M2641 1893 c0 -10 3 -13 6 -5 6 15 39 16 46 2 3 -6 4 -5 3 2 -1 7
-15 14 -29 16 -21 3 -27 -1 -26 -15z"/>
<path d="M1482 1860 c0 -14 2 -19 5 -12 2 6 2 18 0 25 -3 6 -5 1 -5 -13z"/>
<path d="M3483 1873 c-7 -2 -13 -12 -13 -21 0 -13 9 -17 36 -18 25 0 31 2 20
8 -9 5 -16 16 -16 23 0 15 -6 17 -27 8z m17 -13 c0 -5 -5 -10 -11 -10 -5 0 -7
5 -4 10 3 6 8 10 11 10 2 0 4 -4 4 -10z"/>
<path d="M2523 1856 c1 -11 9 -21 17 -23 10 -3 11 -2 4 4 -6 4 -14 15 -17 23
-5 11 -6 9 -4 -4z"/>
<path d="M2640 1858 c0 -25 39 -33 59 -13 15 16 15 16 -7 4 -21 -12 -25 -12
-38 5 -12 17 -14 17 -14 4z"/>
<path d="M3370 1852 c0 -18 26 -25 47 -12 16 9 15 10 -6 4 -15 -4 -27 -1 -32
7 -7 11 -9 11 -9 1z"/>
<path d="M3061 1834 c0 -11 3 -14 6 -6 3 7 2 16 -1 19 -3 4 -6 -2 -5 -13z"/>
</g>
</svg>
